<svg width="20" height="20" viewBox="0 0 20 20" fill="none" xmlns="http://www.w3.org/2000/svg">
<path d="M12.0503 2.71536L12.7837 1.98203C13.6503 1.11536 15.1587 1.11536 16.0253 1.98203L16.617 2.5737C17.0503 3.00703 17.292 3.58203 17.292 4.19036C17.292 4.7987 17.0503 5.38203 16.617 5.80703L15.8837 6.54036L12.0503 2.70703V2.71536ZM11.167 3.5987L3.57533 11.1904C3.33366 11.432 3.18366 11.7487 3.15866 12.0904L2.93366 14.532C2.90866 14.8404 3.01699 15.1404 3.23366 15.3654C3.43366 15.5654 3.69199 15.6737 3.96699 15.6737H4.05866L6.50033 15.4487C6.84199 15.4154 7.15866 15.2654 7.40033 15.0237L14.992 7.43203L11.1587 3.5987H11.167ZM18.9587 18.332C18.9587 17.9904 18.6753 17.707 18.3337 17.707H1.66699C1.32533 17.707 1.04199 17.9904 1.04199 18.332C1.04199 18.6737 1.32533 18.957 1.66699 18.957H18.3337C18.6753 18.957 18.9587 18.6737 18.9587 18.332Z" fill="#00AEEF"/>
</svg>
