<svg width="20" height="20" viewBox="0 0 20 20" fill="none" xmlns="http://www.w3.org/2000/svg">
<path d="M10 6.36363C7.99092 6.36363 6.36367 7.99091 6.36367 9.99998C6.36367 12.009 7.99092 13.6364 10 13.6364C12.0091 13.6364 13.6364 12.0091 13.6364 10C13.6364 7.99096 12.0091 6.36363 10 6.36363ZM18.1273 9.0909C17.7091 5.29999 14.7 2.29091 10.9091 1.87274V0H9.0909V1.87274C5.29999 2.29091 2.29091 5.29999 1.87274 9.0909H0V10.9091H1.87274C2.29091 14.7 5.30003 17.7091 9.09094 18.1273V20H10.9091V18.1273C14.7 17.7091 17.7091 14.7 18.1273 10.9091H20V9.0909H18.1273ZM10 16.3636C6.4864 16.3636 3.63639 13.5136 3.63639 10C3.63639 6.4864 6.4864 3.63639 10 3.63639C13.5136 3.63639 16.3636 6.48635 16.3636 10C16.3636 13.5137 13.5136 16.3636 10 16.3636Z" fill="#00AEEF"/>
</svg>
